<?xml version="1.0" encoding="utf-8"?>
<!-- Generated by IcoMoon.io -->
<!DOCTYPE svg PUBLIC "-//W3C//DTD SVG 1.1//EN" "http://www.w3.org/Graphics/SVG/1.1/DTD/svg11.dtd">
<svg version="1.1" xmlns="http://www.w3.org/2000/svg" xmlns:xlink="http://www.w3.org/1999/xlink" width="512" height="512" viewBox="0 0 512 512">
	<path d="M256 96c-111.659 0-208.441 65.021-256 160 47.559 94.979 144.341 160 256 160 111.657 0 208.439-65.021 256-160-47.558-94.979-144.343-160-256-160zM382.225 180.852c30.081 19.187 55.571 44.887 74.717 75.148-19.146 30.261-44.637 55.961-74.718 75.149-37.797 24.108-81.445 36.851-126.224 36.851-44.78 0-88.428-12.743-126.225-36.852-30.080-19.186-55.57-44.886-74.717-75.148 19.146-30.262 44.637-55.962 74.717-75.148 1.959-1.25 3.938-2.461 5.929-3.65-4.979 13.664-7.704 28.411-7.704 43.798 0 70.692 57.308 128 128 128s128-57.308 128-128c0-15.387-2.725-30.134-7.704-43.799 1.99 1.189 3.969 2.401 5.929 3.651zM256 205c0 26.51-21.49 48-48 48s-48-21.49-48-48 21.49-48 48-48 48 21.49 48 48z"></path>
</svg>
