<?xml version="1.0" encoding="iso-8859-1"?>
<!DOCTYPE svg PUBLIC "-//W3C//DTD SVG 1.1//EN" "http://www.w3.org/Graphics/SVG/1.1/DTD/svg11.dtd">
<svg version="1.1" id="Capa_1" xmlns="http://www.w3.org/2000/svg" xmlns:xlink="http://www.w3.org/1999/xlink" x="0px" y="0px"
	 width="21.424px" height="21.424px" viewBox="0 0 21.424 21.424" style="enable-background:new 0 0 21.424 21.424;"
	 xml:space="preserve">
<g>
	<g>
		<path style="fill:#231F20;" d="M13.616,17.709L13.616,17.709h0.781l-3.686,3.715l-3.685-3.715h0.781l0,0H13.616z M13.616,17.709
			 M14.007,17.709 M12.555,19.566 M8.87,19.566 M7.418,17.709 M7.809,17.709 M10.712,17.709"/>
		<path style="fill:#231F20;" d="M13.616,3.715L13.616,3.715h0.781L10.712,0L7.027,3.715h0.781l0,0H13.616z M13.616,3.715
			 M14.007,3.715 M12.555,1.858 M8.87,1.858 M7.418,3.715 M7.809,3.715 M10.712,3.715"/>
		<path style="fill:#231F20;" d="M3.716,13.616L3.716,13.616v0.781L0,10.712l3.716-3.685v0.781l0,0V13.616z M3.716,13.616
			 M3.716,14.007 M1.858,12.555 M1.858,8.87 M3.716,7.417 M3.716,7.808 M3.716,10.712"/>
		<path style="fill:#231F20;" d="M17.709,13.616L17.709,13.616v0.781l3.715-3.685l-3.715-3.685v0.781l0,0V13.616z M17.709,13.616
			 M17.709,14.007 M19.566,12.555 M19.566,8.87 M17.709,7.417 M17.709,7.808 M17.709,10.712"/>
	</g>
	<path style="fill-rule:evenodd;clip-rule:evenodd;fill:#231F20;" d="M10.712,6.608c2.267,0,4.104,1.838,4.104,4.104
		c0,2.266-1.837,4.104-4.104,4.104c-2.266,0-4.104-1.837-4.104-4.104C6.608,8.446,8.446,6.608,10.712,6.608L10.712,6.608z
		 M10.712,7.515c-1.765,0-3.196,1.432-3.196,3.197s1.432,3.197,3.196,3.197c1.766,0,3.197-1.432,3.197-3.197
		S12.478,7.515,10.712,7.515z"/>
</g>
</svg>
